<svg width="78" height="71" viewBox="0 0 78 71" fill="none" xmlns="http://www.w3.org/2000/svg">
<path d="M7.94581 0.520407C9.15502 1.22445 10.2631 2.33065 10.7548 3.66727C11.0545 5.15816 11.1034 6.7967 10.3003 8.12849C9.68189 8.97198 8.99976 9.72918 8.25653 10.4636C8.97809 12.3795 8.97809 12.3795 9.84744 14.2296C10.236 14.9699 10.5176 15.7452 10.8045 16.5289C11.2053 17.6232 11.6343 18.6963 12.1095 19.7605C12.7216 21.1321 13.2873 22.5192 13.839 23.9162C14.2637 24.9908 14.7025 26.0588 15.1485 27.1248C15.4296 27.7982 15.708 28.4727 15.9858 29.1474C17.0297 31.6808 18.0753 34.2121 19.194 36.7136C19.5878 36.5823 19.9815 36.4511 20.3872 36.3159C20.3863 36.1473 20.3854 35.9787 20.3844 35.8051C20.3625 31.7074 20.346 27.6098 20.3357 23.5121C20.3306 21.5305 20.3236 19.549 20.3122 17.5674C20.3023 15.8406 20.2959 14.1139 20.2937 12.3871C20.2924 11.4724 20.2893 10.5578 20.2821 9.64318C20.2754 8.7828 20.2733 7.92254 20.2747 7.06214C20.2745 6.74587 20.2725 6.4296 20.2687 6.11336C20.2638 5.68236 20.2649 5.2518 20.2676 4.82079C20.2667 4.57937 20.2658 4.33795 20.2649 4.08922C20.3872 3.50336 20.3872 3.50336 20.7535 3.12746C21.6992 2.79514 22.5991 2.82475 23.5945 2.83101C23.8206 2.83008 24.0466 2.82915 24.2795 2.82819C25.0386 2.82581 25.7976 2.8277 26.5567 2.82958C27.1002 2.8291 27.6437 2.82773 28.1873 2.82641C29.5112 2.82375 30.8351 2.82433 32.1591 2.82606C33.2349 2.8274 34.3107 2.82759 35.3866 2.82694C35.5396 2.82685 35.6927 2.82675 35.8504 2.82666C36.1613 2.82647 36.4723 2.82628 36.7832 2.82608C39.6993 2.82438 42.6154 2.82634 45.5314 2.82954C48.0344 2.83221 50.5374 2.83174 53.0403 2.82899C55.9462 2.8258 58.8521 2.82454 61.758 2.82637C62.0677 2.82656 62.3775 2.82675 62.6872 2.82694C62.9158 2.82708 62.9158 2.82708 63.1491 2.82722C64.2239 2.82773 65.2987 2.82686 66.3735 2.82546C67.6829 2.82379 68.9923 2.82423 70.3017 2.82742C70.97 2.82898 71.6383 2.82927 72.3066 2.82762C73.0304 2.826 73.7541 2.82803 74.4779 2.83101C74.69 2.82968 74.9021 2.82835 75.1206 2.82698C75.4109 2.82931 75.4109 2.82931 75.7071 2.83169C75.8742 2.83179 76.0413 2.83189 76.2135 2.83199C76.7934 2.9279 77.0562 3.07651 77.4611 3.50336C77.5599 4.0008 77.5599 4.0008 77.559 4.60787C77.5605 4.83904 77.5621 5.07021 77.5638 5.30839C77.5614 5.56354 77.5591 5.8187 77.5567 6.08158C77.5571 6.35443 77.5578 6.62727 77.5588 6.90012C77.5606 7.65157 77.5574 8.40293 77.5534 9.15436C77.55 9.96405 77.5511 10.7737 77.5517 11.5834C77.5522 12.9868 77.5497 14.3902 77.5452 15.7936C77.5387 17.8227 77.5366 19.8517 77.5356 21.8808C77.5339 25.1726 77.5286 28.4645 77.5211 31.7563C77.5138 34.9545 77.5082 38.1527 77.5048 41.3509C77.5046 41.548 77.5044 41.745 77.5041 41.948C77.5031 42.9366 77.5021 43.9251 77.5011 44.9136C77.4929 53.1178 77.4788 61.3219 77.4611 69.5261C77.3298 69.5261 77.1986 69.5261 77.0634 69.5261C76.9977 69.723 76.9321 69.9198 76.8645 70.1227C69.7558 70.1363 62.6471 70.1468 55.5383 70.1531C54.6997 70.1539 53.8611 70.1547 53.0225 70.1554C52.8555 70.1556 52.6885 70.1558 52.5165 70.1559C49.8106 70.1585 47.1047 70.1632 44.3988 70.1687C41.6238 70.1743 38.8487 70.1776 36.0737 70.1788C34.3604 70.1796 32.6471 70.1822 30.9337 70.1871C29.76 70.1902 28.5862 70.1912 27.4124 70.1904C26.7345 70.19 26.0566 70.1906 25.3787 70.1938C24.6448 70.1967 23.9109 70.1961 23.177 70.1944C22.9613 70.1962 22.7456 70.1979 22.5234 70.1997C22.3275 70.1985 22.1317 70.1973 21.9299 70.1961C21.7604 70.1963 21.5909 70.1965 21.4162 70.1968C20.8844 70.1057 20.7079 69.9533 20.3872 69.5261C20.3213 69.0396 20.3213 69.0396 20.3328 68.455C20.3353 68.2359 20.3378 68.0169 20.3403 67.7912C20.3478 67.436 20.3478 67.436 20.3554 67.0737C20.3577 66.5736 20.3596 66.0734 20.3612 65.5733C20.3665 64.7836 20.3748 63.9944 20.3906 63.2049C20.4043 62.4435 20.4057 61.6829 20.4051 60.9214C20.4129 60.6858 20.4207 60.4502 20.4287 60.2075C20.423 59.5446 20.3996 59.0187 20.1884 58.3897C19.5871 57.8311 18.9427 57.5289 18.1997 57.1965C17.4922 56.6435 16.8519 56.0354 16.2111 55.4068C16.0985 55.2991 15.986 55.1914 15.8701 55.0805C14.8309 53.989 14.2344 52.5906 13.6259 51.2306C13.553 51.0714 13.4802 50.9122 13.4052 50.7482C12.5848 48.5695 12.7146 45.5566 13.5738 43.4221C13.698 43.153 13.698 43.153 13.8247 42.8784C13.9137 42.6743 14.0026 42.4703 14.0943 42.26C14.6404 41.0829 15.2231 40.1579 16.1668 39.2623C16.4626 38.9088 16.4626 38.9088 16.3496 38.4401C16.2145 37.9201 16.0437 37.4577 15.8281 36.966C15.7516 36.7898 15.6751 36.6136 15.5962 36.432C15.5161 36.2501 15.436 36.0682 15.3535 35.8808C14.8283 34.6792 14.3144 33.4759 13.8315 32.2566C13.4466 31.2934 13.044 30.3375 12.644 29.3805C12.4764 28.9791 12.3089 28.5778 12.1414 28.1764C12.0581 27.977 11.9748 27.7776 11.889 27.5722C11.5561 26.7751 11.224 25.9777 10.8919 25.1804C10.6411 24.5787 10.39 23.9772 10.1387 23.3757C9.97122 22.9744 9.80368 22.573 9.63615 22.1717C9.55245 21.9715 9.46876 21.7713 9.38252 21.565C9.00139 20.6515 8.62319 19.7372 8.25731 18.8174C7.80647 17.6844 7.33552 16.5599 6.86449 15.4352C6.69448 15.0292 6.52462 14.6232 6.3549 14.2171C6.2724 14.0223 6.18991 13.8274 6.10491 13.6266C5.95025 13.2459 5.80545 12.8611 5.67155 12.4726C5.33323 11.4225 5.33323 11.4225 4.52396 10.7339C4.32426 10.6939 4.12457 10.6539 3.91882 10.6127C2.20816 10.1632 1.383 9.34417 0.489977 7.84496C-0.13653 6.63078 -0.0331187 5.22479 0.103125 3.90109C0.678418 2.2345 1.99717 1.05585 3.55527 0.289694C4.96229 -0.157804 6.60281 -0.0913598 7.94581 0.520407ZM21.9781 4.49768C21.9781 14.8008 21.9781 25.1039 21.9781 35.7193C22.3719 35.6536 22.7656 35.588 23.1713 35.5204C26.7272 35.2347 29.8714 35.8641 32.6896 38.1748C33.3843 38.793 34.0487 39.4363 34.7054 40.0943C35.0188 39.8782 35.0188 39.8782 35.3385 39.6577C38.0297 37.8036 38.0297 37.8036 39.2404 37.0026C39.5736 36.782 39.9059 36.5601 40.2378 36.3376C41.4296 35.539 42.6299 34.7628 43.8562 34.0181C44.0516 33.8758 44.0516 33.8758 44.2509 33.7306C44.2509 33.5994 44.2509 33.4681 44.2509 33.3329C44.3875 33.2845 44.5241 33.236 44.6649 33.1861C45.3485 32.8905 45.9546 32.5097 46.5751 32.1024C46.6984 32.0223 46.8217 31.9422 46.9488 31.8596C47.8074 31.2988 48.65 30.7179 49.4866 30.1247C50.5166 29.4049 51.5675 28.7158 52.6146 28.0212C53.2287 27.6135 53.8418 27.2043 54.455 26.7953C54.7013 26.6311 54.9475 26.4669 55.1938 26.3028C55.3204 26.2184 55.447 26.134 55.5774 26.047C57.5027 24.7635 59.4279 23.48 61.3531 22.1965C61.3213 22.045 61.2895 21.8934 61.2567 21.7373C60.9755 20.2678 60.9068 18.6894 61.7004 17.3788C61.8238 17.2042 61.8238 17.2042 61.9497 17.0261C62.0341 16.9015 62.1184 16.7769 62.2053 16.6486C63.1222 15.4379 64.3245 14.9034 65.8027 14.6522C67.3549 14.5494 68.6924 14.9705 69.8918 15.9572C71.0285 17.0695 71.6021 18.3584 71.7127 19.9453C71.6486 21.5323 70.9891 22.8488 69.9043 23.9863C69.2043 24.5292 68.5367 24.8615 67.7168 25.1795C67.6958 25.3373 67.6748 25.4951 67.6532 25.6577C67.5543 26.4015 67.4554 27.1453 67.3563 27.889C67.3382 28.0247 67.3202 28.1605 67.3016 28.3003C67.0742 30.0072 66.8446 31.7139 66.6106 33.4199C66.2799 35.8198 66.2799 35.8198 65.971 38.2225C65.8419 39.2685 65.6958 40.309 65.5234 41.3487C65.4265 41.9423 65.3375 42.537 65.2496 43.132C65.2043 43.4248 65.1557 43.717 65.1035 44.0086C64.9443 44.903 64.8207 45.7473 64.9327 46.6568C65.3319 47.175 65.6972 47.4486 66.2639 47.7701C67.1573 48.3131 67.5936 49.2703 67.9156 50.2363C68.0867 51.9789 67.9623 53.3689 66.9213 54.8102C65.9405 55.9607 64.842 56.5883 63.3418 56.7988C61.6943 56.8517 60.3419 56.5319 59.126 55.3959C57.8069 53.9892 57.4651 52.8178 57.5001 50.8974C57.6512 49.5579 58.2341 48.4937 59.2153 47.5765C59.882 47.0567 60.6033 46.7335 61.3889 46.4299C61.788 46.2871 61.788 46.2871 61.9497 45.8613C62.003 45.4859 62.0467 45.109 62.0857 44.7318C62.1224 44.3865 62.1224 44.3865 62.1598 44.0343C62.1848 43.7923 62.2098 43.5503 62.2356 43.3009C62.5095 40.652 62.5095 40.652 62.7343 39.3819C63.0139 37.774 63.1821 36.1523 63.365 34.5311C63.4724 33.58 63.5818 32.6292 63.6913 31.6783C63.7126 31.4932 63.7339 31.3081 63.7559 31.1175C63.9927 29.0688 64.256 27.024 64.5349 24.9806C64.0568 24.7283 63.6598 24.5206 63.1429 24.384C62.5574 24.5489 62.5574 24.5489 62.0616 24.9185C61.8036 25.0858 61.8036 25.0858 61.5403 25.2564C61.4129 25.3623 61.2855 25.4681 61.1543 25.5772C61.1543 25.7085 61.1543 25.8397 61.1543 25.9749C60.9524 26.0445 60.9524 26.0445 60.7464 26.1156C60.0144 26.4365 59.3893 26.8555 58.7306 27.3048C58.5981 27.3942 58.4656 27.4835 58.329 27.5755C57.6038 28.0658 56.8848 28.5641 56.1702 29.0698C55.2978 29.6859 54.403 30.2638 53.5026 30.8378C52.5068 31.4738 51.5233 32.1269 50.5428 32.7863C49.9053 33.2137 49.2644 33.6334 48.6142 34.0414C48.4847 34.1229 48.3553 34.2044 48.2219 34.2884C47.9738 34.4439 47.725 34.5983 47.4754 34.7514C47.1892 34.931 46.9121 35.125 46.6372 35.3215C46.6372 35.4528 46.6372 35.584 46.6372 35.7193C46.423 35.7981 46.423 35.7981 46.2045 35.8785C44.6904 36.5214 43.3338 37.5771 41.9997 38.529C41.234 39.0636 40.4549 39.5777 39.677 40.0943C39.3577 40.307 39.0384 40.5199 38.7192 40.7328C37.4083 41.6067 37.4083 41.6067 36.0974 42.4806C36.1382 42.6534 36.179 42.8262 36.221 43.0042C36.2745 43.2334 36.3281 43.4626 36.3833 43.6987C36.4364 43.9248 36.4894 44.1509 36.5441 44.3838C37.309 47.8633 36.7174 51.0232 34.8305 54.0551C33.2642 56.3092 30.7179 58.1927 28.031 58.8745C27.7382 58.9207 27.4436 58.957 27.1486 58.9863C26.9363 59.0099 26.7241 59.0335 26.5054 59.0578C24.9258 59.2026 23.605 59.1219 21.9781 58.9863C21.9781 62.1363 21.9781 65.2863 21.9781 68.5318C39.7625 68.5318 57.5469 68.5318 75.8702 68.5318C75.8702 47.4005 75.8702 26.2693 75.8702 4.49768C58.0858 4.49768 40.3014 4.49768 21.9781 4.49768Z" fill="#FE004A"/>
</svg>
